<?xml version="1.0" standalone="no"?>
<!DOCTYPE svg PUBLIC "-//W3C//DTD SVG 20010904//EN"
 "http://www.w3.org/TR/2001/REC-SVG-20010904/DTD/svg10.dtd">
<svg version="1.0" xmlns="http://www.w3.org/2000/svg"
 width="108.000000pt" height="108.000000pt" viewBox="0 0 108.000000 108.000000"
 preserveAspectRatio="xMidYMid meet">

<g transform="translate(0.000000,108.000000) scale(0.100000,-0.100000)"
fill="#000000" stroke="none">
<path d="M900 1064 c23 -14 23 -14 3 -9 -13 4 -23 2 -23 -4 0 -7 -8 -7 -22 -2
-53 19 -298 -9 -358 -40 -19 -11 -41 -19 -48 -19 -8 0 -26 -9 -41 -19 -15 -11
-52 -30 -82 -44 -30 -13 -66 -37 -80 -54 -13 -16 -33 -32 -43 -36 -16 -6 -15
-2 7 35 14 24 36 46 49 49 16 5 18 7 5 8 -10 1 -28 7 -40 15 -12 8 -45 18 -74
22 -49 6 -54 4 -82 -23 -20 -20 -31 -44 -36 -75 -6 -39 -2 -55 28 -117 31 -64
34 -76 25 -109 -12 -45 -11 -44 -32 -36 -9 3 -17 16 -17 28 -1 16 -2 17 -6 4
-2 -10 -10 -18 -18 -18 -9 0 -13 -25 -14 -100 l-2 -100 60 0 c71 0 88 -17 69
-68 -10 -26 -9 -37 5 -67 10 -20 15 -41 12 -46 -4 -5 -1 -9 4 -9 6 0 11 -7 11
-15 0 -8 13 -29 29 -47 15 -18 31 -43 35 -55 4 -11 13 -27 21 -33 8 -7 15 -22
15 -34 0 -46 2 -46 422 -46 l398 0 0 540 0 540 -102 0 c-96 -1 -101 -2 -78
-16z m-709 -280 c-12 -8 -21 -22 -21 -30 0 -9 -5 -14 -11 -12 -6 2 -10 7 -9
11 8 35 14 44 33 52 29 13 35 -3 8 -21z"/>
<path d="M18 233 c7 -3 16 -2 19 1 4 3 -2 6 -13 5 -11 0 -14 -3 -6 -6z"/>
<path d="M106 94 c-5 -14 -4 -15 9 -4 17 14 19 20 6 20 -5 0 -12 -7 -15 -16z"/>
</g>
</svg>
